<svg xmlns="http://www.w3.org/2000/svg" width="1200" height="1200" viewBox="0 0 1200 1200">
  <defs>
    <filter id="glowW" height="300%" width="300%" x="-100%" y="-100%">
      <feGaussianBlur stdDeviation="3" result="coloredBlur"/>
      <feMerge>
        <feMergeNode in="coloredBlur"/>
        <feMergeNode in="SourceGraphic"/>
      </feMerge>
    </filter>
    <filter id="glowNeonG">
      <feGaussianBlur stdDeviation="4" result="blur"/>
      <feMerge>
        <feMergeNode in="blur"/>
        <feMergeNode in="SourceGraphic"/>
      </feMerge>
    </filter>
    <filter id="glowNeonB">
      <feGaussianBlur stdDeviation="4" result="blur"/>
      <feMerge>
        <feMergeNode in="blur"/>
        <feMergeNode in="SourceGraphic"/>
      </feMerge>
    </filter>
    <filter id="glowNeonR">
      <feGaussianBlur stdDeviation="2.5" result="blur"/>
      <feMerge>
        <feMergeNode in="blur"/>
        <feMergeNode in="SourceGraphic"/>
      </feMerge>
    </filter>
    <radialGradient id="divotGrad" cx="50%" cy="50%" r="50%">
      <stop offset="0%" stop-color="#ffb300" stop-opacity="0.95"/>
      <stop offset="60%" stop-color="#ff6a00" stop-opacity="0.65"/>
      <stop offset="100%" stop-color="#ff6a00" stop-opacity="0"/>
    </radialGradient>
  </defs>
  <rect width="100%" height="100%" fill="#07090F"/>
<path d="M323.1111111111111,868.1042791980624 A 24,24 0 1,1 290.32650142028456,876.8888888888889" fill="none" stroke="#ff4d6d" stroke-width="5" filter="url(#glowNeonR)"/>
<path d="M300.1745789504066,878.6253706655582 L290.32650142028456,876.8888888888889 L296.75437751715,884.5493333200787" stroke="#ff4d6d" stroke-width="5" fill="none" filter="url(#glowNeonR)"/>
<path d="M438.6666666666667,752.5487236425068 A 24,24 0 1,1 405.88205697584016,761.3333333333334" fill="none" stroke="#ff4d6d" stroke-width="5" filter="url(#glowNeonR)"/>
<path d="M415.7301345059622,763.0698151100027 L405.88205697584016,761.3333333333334 L412.3099330727056,768.9937777645232" stroke="#ff4d6d" stroke-width="5" fill="none" filter="url(#glowNeonR)"/>
<path d="M669.7777777777778,752.5487236425068 A 24,24 0 1,1 636.9931680869513,761.3333333333334" fill="none" stroke="#ff4d6d" stroke-width="5" filter="url(#glowNeonR)"/>
<path d="M646.8412456170734,763.0698151100027 L636.9931680869513,761.3333333333334 L643.4210441838167,768.9937777645232" stroke="#ff4d6d" stroke-width="5" fill="none" filter="url(#glowNeonR)"/>
<path d="M900.8888888888889,521.4376125313956 A 24,24 0 1,1 868.1042791980624,530.2222222222222" fill="none" stroke="#ff4d6d" stroke-width="5" filter="url(#glowNeonR)"/>
<path d="M877.9523567281844,531.9587039988915 L868.1042791980624,530.2222222222222 L874.5321552949277,537.882666653412" stroke="#ff4d6d" stroke-width="5" fill="none" filter="url(#glowNeonR)"/>
</svg>